<?xml version="1.0" encoding="UTF-8"?>
<!-- Author: Rafael Friesen -->
<svg xmlns="http://www.w3.org/2000/svg" version="1.1" width="150" height="155">
  <!-- https://www.mediaevent.de/tutorial/svg-circle-arc.html -->
  <!--rect x="0" y="0" width="150" height="155" fill="green"/-->
  <g transform="translate(-75, -15)">
    <path d="M 100 50 L 150,20 L200,50 L200,100 L150,130 L100,100 Z" 
      stroke-width="3" stroke="black" fill="none"/>

    <!-- Center -->
    <circle cx="150" cy="75" r="5" style="fill:black" />

    <!-- Pointers -->
    <ellipse cx="150" cy="55" rx="3" ry="20" style="fill:black" />
    <g transform="rotate(117,150,75)">
      <ellipse cx="150" cy="52" rx="2" ry="24" style="fill:black" />
    </g>
  
    <!-- Numbers -->
    <g transform="rotate(240,150,75)">
      <ellipse cx="150" cy="103" rx="8" ry="4" style="fill:black" />
    </g>
    <ellipse cx="130" cy="100" rx="8" ry="4" style="fill:black" />
    <ellipse cx="170" cy="100" rx="8" ry="4" style="fill:black" />
    <g transform="rotate(120,150,75)">
      <ellipse cx="125" cy="103" rx="8" ry="4" style="fill:black" />
      <ellipse cx="150" cy="103" rx="8" ry="4" style="fill:black" />
      <ellipse cx="175" cy="103" rx="8" ry="4" style="fill:black" />
    </g>

    <text x="78" y="165" fill="black" font-family="monospace" font-size="40px">AD HOC</text>
  </g>
</svg>
